<svg width="143" height="35" viewBox="0 0 143 35" fill="none" xmlns="http://www.w3.org/2000/svg">
<path d="M13.0311 0.5H21.9688C28.8895 0.5 34.4999 6.11039 34.4999 13.0312V21.9688C34.4999 28.8896 28.8895 34.5 21.9688 34.5H13.0311C6.11038 34.5 0.5 28.8896 0.5 21.9688V13.0312C0.5 6.11039 6.11038 0.5 13.0311 0.5Z" fill="#AA00C7" stroke="#9600AF"/>
<path opacity="0.6" d="M22.9754 17.6804L13.8773 12.3688C12.7471 11.7091 11.2887 12.1047 10.6363 13.2464C9.98383 14.3893 10.375 15.864 11.5041 16.5237L20.6022 21.8353C21.7324 22.4951 23.1908 22.0996 23.8432 20.9578C24.4969 19.8149 24.1057 18.3402 22.9754 17.6804Z" fill="white"/>
<path opacity="0.6" d="M23.0286 11.2247L13.9306 16.5364C12.8003 17.196 11.3419 16.8005 10.6895 15.6588C10.0371 14.5158 10.4283 13.0411 11.5573 12.3814L20.6554 7.06972C21.7857 6.40999 23.244 6.80559 23.8965 7.94729C24.5489 9.09023 24.159 10.5649 23.0286 11.2247Z" fill="white"/>
<path opacity="0.6" d="M23.0286 21.8567L13.9306 27.1684C12.8003 27.8281 11.3419 27.4326 10.6895 26.2908C10.0371 25.1479 10.4283 23.6732 11.5573 23.0135L20.6554 17.7018C21.7857 17.0421 23.244 17.4377 23.8965 18.5793C24.5489 19.7235 24.159 21.197 23.0286 21.8567Z" fill="white"/>
<path d="M23.0274 11.2125C24.1863 10.5359 24.5742 9.06386 23.8938 7.92464C23.2133 6.78542 21.7224 6.41039 20.5634 7.08699C19.4046 7.76358 19.0167 9.23558 19.6972 10.3748C20.3776 11.514 21.8686 11.8891 23.0274 11.2125Z" fill="white"/>
<path d="M21.8117 22.1839C23.1216 22.1839 24.1837 21.11 24.1837 19.7853C24.1837 18.4606 23.1216 17.3867 21.8117 17.3867C20.5016 17.3867 19.4397 18.4606 19.4397 19.7853C19.4397 21.11 20.5016 22.1839 21.8117 22.1839Z" fill="white"/>
<path d="M15.0347 25.6424C15.3381 24.3538 14.5508 23.0607 13.2762 22.7545C12.0016 22.4482 10.7224 23.2446 10.419 24.5333C10.1156 25.822 10.9029 27.1151 12.1775 27.4214C13.4521 27.7276 14.7313 26.9312 15.0347 25.6424Z" fill="white"/>
<path d="M12.7455 16.8606C14.0556 16.8606 15.1176 15.7867 15.1176 14.462C15.1176 13.1374 14.0556 12.0635 12.7455 12.0635C11.4355 12.0635 10.3735 13.1374 10.3735 14.462C10.3735 15.7867 11.4355 16.8606 12.7455 16.8606Z" fill="white"/>
<path d="M52.792 5.76538C52.1078 5.54883 51.3571 5.43994 50.5411 5.43994C48.5318 5.43994 47.0365 5.92751 46.0541 6.90262C45.0716 7.87775 44.2219 9.2642 44.2219 11.062V12.2984H42.6889C41.7562 12.2984 41 13.0546 41 13.9874C41 14.9201 41.7562 15.6763 42.6889 15.6763H44.2219V27.2807C44.2219 28.5319 45.2362 29.5461 46.4872 29.5461C47.7382 29.5461 48.7524 28.5319 48.7524 27.2807V15.6738H52.2284C53.1613 15.6738 53.9173 14.9177 53.9173 13.9849C53.9173 13.0522 53.1613 12.296 52.2284 12.296H48.7524V11.1588C48.7524 10.4232 48.9226 9.86428 49.2653 9.4856C49.6067 9.10692 50.1638 8.91698 50.9368 8.91698C51.1573 8.91698 51.3621 8.92786 51.5494 8.94965C51.7367 8.97142 51.9635 9.00409 52.2286 9.04765C52.7131 9.13475 53.089 9.05369 53.3541 8.80447C53.6191 8.55524 53.8064 8.1814 53.9173 7.68295C54.0271 7.16273 53.9778 6.7514 53.7682 6.44773C53.5587 6.14406 53.2332 5.91662 52.792 5.76538Z" fill="#520060"/>
<path d="M104.809 12.1133C106.132 12.1133 107.084 13.3833 106.713 14.6526L103.011 27.3124C102.621 28.6445 101.4 29.5601 100.012 29.5601C98.5899 29.5601 97.3475 28.6002 96.9885 27.2245L94.4173 17.3725L91.8506 27.2071C91.4889 28.5931 90.2372 29.5601 88.8048 29.5601C87.4085 29.5601 86.1791 28.6403 85.785 27.3006L82.1081 14.8041C81.7127 13.46 82.7203 12.1133 84.1214 12.1133C85.0974 12.1133 85.9447 12.7863 86.1654 13.7371L88.8746 25.4031L91.6462 14.369C91.9793 13.043 93.1713 12.1133 94.5386 12.1133C95.9101 12.1133 97.1047 13.0488 97.4336 14.3803L100.149 25.3716L102.878 13.6466C103.087 12.7487 103.887 12.1133 104.809 12.1133Z" fill="#520060"/>
<path d="M71.2356 29.5556C69.5559 29.5556 68.0443 29.1882 66.7006 28.4534C65.357 27.6976 64.2968 26.6373 63.5199 25.2727C62.7641 23.908 62.3862 22.3334 62.3862 20.5488C62.3862 18.7642 62.7747 17.1896 63.5514 15.8249C64.3493 14.4603 65.4304 13.4105 66.7951 12.6757C68.1598 11.9199 69.6819 11.542 71.3615 11.542C73.0411 11.542 74.5632 11.9199 75.9278 12.6757C77.2925 13.4105 78.3633 14.4603 79.14 15.8249C79.9379 17.1896 80.3368 18.7642 80.3368 20.5488C80.3368 22.3334 79.9274 23.908 79.1086 25.2727C78.3108 26.6373 77.2191 27.6976 75.8334 28.4534C74.4687 29.1882 72.9362 29.5556 71.2356 29.5556ZM71.2356 25.7135C72.0333 25.7135 72.7787 25.5246 73.4714 25.1467C74.1853 24.7477 74.7522 24.1599 75.172 23.383C75.5919 22.6063 75.8019 21.6616 75.8019 20.5488C75.8019 18.8902 75.3611 17.62 74.4793 16.7382C73.6184 15.8354 72.5582 15.3841 71.2986 15.3841C70.0388 15.3841 68.9786 15.8354 68.1178 16.7382C67.278 17.62 66.8581 18.8902 66.8581 20.5488C66.8581 22.2074 67.2675 23.4881 68.0863 24.3909C68.9262 25.2727 69.9758 25.7135 71.2356 25.7135Z" fill="#520060"/>
<path d="M58.0601 6.25122C59.2776 6.25122 60.2646 7.2382 60.2646 8.45568V27.3511C60.2646 28.5686 59.2776 29.5555 58.0601 29.5555C56.8427 29.5555 55.8557 28.5686 55.8557 27.3511V8.45568C55.8557 7.23819 56.8427 6.25122 58.0601 6.25122Z" fill="#520060"/>
<path d="M109.161 27.7912C109.161 27.5352 109.248 27.3201 109.422 27.1464C109.596 26.968 109.831 26.8788 110.129 26.8788C110.431 26.8788 110.666 26.968 110.835 27.1464C111.009 27.3201 111.096 27.5352 111.096 27.7912C111.096 28.0474 111.009 28.2625 110.835 28.4363C110.666 28.61 110.431 28.697 110.129 28.697C109.831 28.697 109.596 28.61 109.422 28.4363C109.248 28.2625 109.161 28.0474 109.161 27.7912Z" fill="#520060"/>
<path d="M116.692 21.19V22.3977H112.507V21.19H116.692ZM113.714 19.3718H115.368V26.5623C115.368 26.791 115.4 26.9672 115.464 27.0906C115.532 27.2096 115.626 27.2896 115.745 27.3308C115.864 27.372 116.004 27.3925 116.164 27.3925C116.278 27.3925 116.388 27.3856 116.493 27.372C116.598 27.3582 116.683 27.3445 116.747 27.3308L116.754 28.5933C116.616 28.6344 116.456 28.671 116.273 28.703C116.095 28.735 115.889 28.751 115.656 28.751C115.276 28.751 114.94 28.6847 114.647 28.552C114.355 28.4148 114.126 28.1931 113.961 27.8865C113.796 27.5801 113.714 27.173 113.714 26.6652V19.3718Z" fill="#520060"/>
<path d="M120.957 28.7517C120.408 28.7517 119.912 28.6626 119.468 28.4842C119.029 28.3013 118.654 28.0474 118.343 27.7226C118.036 27.3979 117.801 27.0159 117.636 26.5768C117.471 26.1378 117.389 25.6642 117.389 25.1566V24.8822C117.389 24.3012 117.474 23.7752 117.643 23.3041C117.812 22.8329 118.048 22.4304 118.35 22.0966C118.652 21.758 119.008 21.4996 119.42 21.3212C119.832 21.1428 120.278 21.0536 120.758 21.0536C121.288 21.0536 121.753 21.1428 122.151 21.3212C122.549 21.4996 122.878 21.7511 123.139 22.0759C123.404 22.3961 123.601 22.778 123.729 23.2218C123.861 23.6654 123.928 24.1549 123.928 24.69V25.3967H118.192V24.2097H122.295V24.0793C122.286 23.782 122.226 23.503 122.116 23.2423C122.011 22.9815 121.849 22.7712 121.629 22.6111C121.41 22.4509 121.117 22.371 120.751 22.371C120.477 22.371 120.232 22.4304 120.017 22.5493C119.807 22.6637 119.63 22.8307 119.489 23.0501C119.347 23.2697 119.237 23.535 119.159 23.846C119.086 24.1526 119.05 24.4979 119.05 24.8822V25.1566C119.05 25.4814 119.093 25.7832 119.18 26.0622C119.271 26.3367 119.404 26.5768 119.578 26.7826C119.752 26.9885 119.962 27.1508 120.209 27.2698C120.456 27.3841 120.737 27.4413 121.053 27.4413C121.451 27.4413 121.805 27.3612 122.116 27.2012C122.427 27.0411 122.697 26.8147 122.926 26.5219L123.797 27.3659C123.637 27.5992 123.429 27.8232 123.173 28.0382C122.917 28.2486 122.604 28.4201 122.233 28.5528C121.867 28.6854 121.442 28.7517 120.957 28.7517Z" fill="#520060"/>
<path d="M129.124 27.1257V23.5853C129.124 23.32 129.076 23.0914 128.98 22.8993C128.884 22.7071 128.737 22.5585 128.54 22.4532C128.348 22.348 128.106 22.2955 127.813 22.2955C127.543 22.2955 127.31 22.3412 127.113 22.4327C126.917 22.5241 126.764 22.6476 126.654 22.8032C126.544 22.9588 126.489 23.1348 126.489 23.3315H124.842C124.842 23.0388 124.913 22.7551 125.055 22.4807C125.197 22.2063 125.403 21.9615 125.673 21.7466C125.942 21.5317 126.265 21.3623 126.64 21.2389C127.015 21.1154 127.436 21.0536 127.902 21.0536C128.46 21.0536 128.954 21.1474 129.384 21.335C129.819 21.5224 130.16 21.8061 130.407 22.1857C130.658 22.5608 130.784 23.0319 130.784 23.5991V26.8992C130.784 27.2378 130.807 27.542 130.853 27.8118C130.903 28.0771 130.974 28.3081 131.065 28.5048V28.6145H129.371C129.293 28.4362 129.231 28.2098 129.185 27.9353C129.144 27.6562 129.124 27.3864 129.124 27.1257ZM129.364 24.0999L129.377 25.1223H128.191C127.884 25.1223 127.614 25.152 127.381 25.2115C127.148 25.2663 126.953 25.3487 126.798 25.4584C126.642 25.5682 126.526 25.7008 126.448 25.8564C126.37 26.0119 126.331 26.188 126.331 26.3847C126.331 26.5814 126.377 26.762 126.468 26.9267C126.56 27.0868 126.693 27.2126 126.866 27.3041C127.045 27.3955 127.26 27.4413 127.511 27.4413C127.85 27.4413 128.145 27.3727 128.396 27.2355C128.653 27.0936 128.854 26.9221 129 26.7209C129.146 26.5151 129.224 26.3207 129.233 26.1378L129.769 26.8719C129.714 27.0593 129.62 27.2606 129.487 27.4756C129.355 27.6905 129.181 27.8965 128.966 28.093C128.756 28.2852 128.502 28.443 128.204 28.5666C127.912 28.6901 127.573 28.7517 127.189 28.7517C126.704 28.7517 126.272 28.6557 125.892 28.4637C125.512 28.267 125.215 28.0039 125 27.6746C124.785 27.3407 124.678 26.9633 124.678 26.5425C124.678 26.1492 124.751 25.8015 124.897 25.4996C125.048 25.1931 125.268 24.937 125.556 24.7312C125.849 24.5254 126.205 24.3698 126.626 24.2646C127.047 24.1549 127.527 24.0999 128.067 24.0999H129.364Z" fill="#520060"/>
<path d="M133.889 22.7003V28.6145H132.236V21.1908H133.794L133.889 22.7003ZM133.622 24.6283L133.059 24.6214C133.059 24.1091 133.123 23.6357 133.251 23.2011C133.38 22.7666 133.567 22.3892 133.814 22.0691C134.061 21.7443 134.368 21.4949 134.733 21.3212C135.104 21.1428 135.532 21.0536 136.017 21.0536C136.355 21.0536 136.664 21.104 136.943 21.2046C137.226 21.3007 137.471 21.4538 137.677 21.6643C137.887 21.8747 138.047 22.1445 138.157 22.4739C138.272 22.8032 138.329 23.2011 138.329 23.6677V28.6145H136.675V23.8117C136.675 23.4504 136.62 23.1668 136.511 22.961C136.405 22.7551 136.252 22.6088 136.051 22.5218C135.854 22.4304 135.619 22.3846 135.344 22.3846C135.033 22.3846 134.768 22.4441 134.548 22.5631C134.333 22.6819 134.157 22.8443 134.02 23.0501C133.883 23.2561 133.782 23.4939 133.718 23.7638C133.654 24.0336 133.622 24.3218 133.622 24.6283ZM138.226 24.1892L137.45 24.3607C137.45 23.9124 137.512 23.4894 137.636 23.0914C137.764 22.6888 137.949 22.3367 138.191 22.0348C138.439 21.7282 138.743 21.4881 139.104 21.3143C139.465 21.1405 139.879 21.0536 140.346 21.0536C140.726 21.0536 141.064 21.1062 141.361 21.2114C141.663 21.3121 141.919 21.4722 142.13 21.6916C142.34 21.9112 142.501 22.1972 142.611 22.5493C142.719 22.897 142.774 23.3177 142.774 23.8117V28.6145H141.114V23.8049C141.114 23.4299 141.059 23.1394 140.95 22.9336C140.844 22.7278 140.694 22.5859 140.497 22.5082C140.3 22.4259 140.065 22.3846 139.79 22.3846C139.534 22.3846 139.308 22.4327 139.111 22.5288C138.919 22.6202 138.756 22.7505 138.624 22.9198C138.491 23.0844 138.39 23.2743 138.322 23.4894C138.258 23.7043 138.226 23.9375 138.226 24.1892Z" fill="#520060"/>
</svg>
